<svg width="379" height="379" viewBox="0 0 379 379" fill="none" xmlns="http://www.w3.org/2000/svg">
<path d="M335.303 246.54C319.144 243.561 302.666 236.298 290.067 226.627C288.422 225.391 284.666 222.265 282.714 220.309C251.472 190.892 242.462 150.074 233.739 110.574C225.305 72.3936 216.592 32.9002 187.512 3.82467C186.464 2.77269 185.683 1.49346 185.178 0.133911C138.151 1.18851 91.441 19.656 55.5403 55.5573C19.6528 91.4507 1.19115 138.157 0.130676 185.17C1.49022 185.684 2.75638 186.447 3.82534 187.509C32.9054 216.584 72.3923 225.316 110.582 233.758C150.074 242.452 190.895 251.457 220.429 282.812C221.859 284.288 225.687 288.825 226.665 290.136C236.31 302.658 243.553 319.161 246.548 335.3C249.027 348.711 248.41 360.735 244.81 370.653C273.588 361.887 300.673 346.155 323.395 323.416C346.148 300.667 361.883 273.574 370.649 244.823C360.735 248.39 348.73 249.018 335.303 246.54Z" fill="black"/>
<path d="M221.149 371.6C234.709 358.039 226.345 322.421 210.368 301.987C208.56 299.639 207.602 298.486 204.815 295.676C179.604 269.611 143.974 261.758 106.231 253.432C69.9821 245.412 32.6468 237.144 1.45563 212.307C6.35443 252.917 24.3864 292.243 55.539 323.416C99.9293 367.775 160.822 385.506 218.434 376.657C218.844 374.767 219.752 373.002 221.149 371.6Z" fill="black"/>
<path d="M212.326 1.45361C237.134 32.6278 245.415 69.9781 253.418 106.236C261.76 143.971 269.619 179.597 295.622 204.792L295.767 204.924C296.898 206.093 298.379 207.33 299.818 208.523C300.622 209.179 301.381 209.842 302.103 210.48C322.562 226.379 358.069 234.68 371.608 221.137C372.996 219.752 374.764 218.831 376.658 218.441C385.515 160.814 367.779 99.9267 323.403 55.5494C292.246 24.4007 252.925 6.36156 212.326 1.45361Z" fill="black"/>
</svg>
